<?xml version="1.0" encoding="UTF-8" standalone="no"?>
<svg width="250" height="350" viewBox="0 0 250 350" xmlns="http://www.w3.org/2000/svg">
  <defs>
    <linearGradient id="cardGradient" x1="0%" y1="0%" x2="0%" y2="100%">
      <stop offset="0%" stop-color="#e74c3c" />
      <stop offset="100%" stop-color="#c0392b" />
    </linearGradient>
    <filter id="glow" x="-50%" y="-50%" width="200%" height="200%">
      <feGaussianBlur stdDeviation="8" result="blur" />
      <feComposite in="SourceGraphic" in2="blur" operator="over" />
    </filter>
    <pattern id="stars" width="50" height="50" patternUnits="userSpaceOnUse">
      <path d="M25,10 L28,18 L36,18 L30,23 L33,31 L25,26 L17,31 L20,23 L14,18 L22,18 Z" fill="#ffcc00" opacity="0.5">
        <animate attributeName="opacity" values="0.5;1;0.5" dur="3s" repeatCount="indefinite" />
      </path>
    </pattern>
  </defs>
  
  <!-- Фон карты -->
  <rect width="250" height="350" rx="15" fill="url(#cardGradient)" />
  <rect width="250" height="350" rx="15" fill="url(#stars)" />
  
  <!-- Силуэт игрока с эффектом свечения -->
  <circle cx="125" cy="120" r="50" fill="#ffffff" opacity="0.9" filter="url(#glow)" />
  <path d="M125 180 Q 75 200 85 280 L 165 280 Q 175 200 125 180" fill="#ffffff" opacity="0.9" filter="url(#glow)" />
  
  <!-- Информация о карте -->
  <rect x="0" y="250" width="250" height="100" fill="rgba(0, 0, 0, 0.7)" />
  
  <!-- Текст -->
  <text x="125" y="280" font-family="Arial, sans-serif" font-size="20" font-weight="bold" fill="#ffffff" text-anchor="middle">Босс мафии</text>
  <text x="125" y="310" font-family="Arial, sans-serif" font-size="14" fill="#ffffff" text-anchor="middle">Легендарная • Очки: 60</text>
  
  <!-- Редкость -->
  <text x="220" y="30" font-family="Arial, sans-serif" font-size="20" font-weight="bold" fill="#ffcc00" text-anchor="middle">★★★★★</text>
  
  <!-- Декоративные элементы -->
  <circle cx="125" cy="175" r="100" fill="none" stroke="#ffcc00" stroke-width="3" opacity="0.5">
    <animate attributeName="r" from="100" to="130" dur="3s" repeatCount="indefinite" />
    <animate attributeName="opacity" from="0.5" to="0" dur="3s" repeatCount="indefinite" />
  </circle>
  <circle cx="125" cy="175" r="80" fill="none" stroke="#ffcc00" stroke-width="2" opacity="0.5">
    <animate attributeName="r" from="80" to="110" dur="2s" repeatCount="indefinite" />
    <animate attributeName="opacity" from="0.5" to="0" dur="2s" repeatCount="indefinite" />
  </circle>
  
  <!-- Прайм-метка -->
  <rect x="15" y="15" width="80" height="30" rx="5" fill="rgba(255, 0, 0, 0.8)" />
  <text x="55" y="35" font-family="Arial, sans-serif" font-size="16" font-weight="bold" fill="#ffffff" text-anchor="middle">ПРАЙМ</text>
</svg>
